<mxfile host="app.diagrams.net" modified="2024-02-05T02:36:41.257Z" agent="Mozilla/5.0 (Windows NT 10.0; Win64; x64) AppleWebKit/537.36 (KHTML, like Gecko) Chrome/120.0.0.0 Safari/537.36" version="23.1.1" etag="WAHwD-ZbHQYMX3n7RoSC" type="github">
  <diagram name="Page-1" id="yRBlIRfJhqH3QvK8NbPl">
    <mxGraphModel>
      <root>
        <mxCell id="0" />
        <mxCell id="1" parent="0" />
      </root>
    </mxGraphModel>
  </diagram>
</mxfile>
